<svg xmlns="http://www.w3.org/2000/svg" version="1.1" xmlns:xlink="http://www.w3.org/1999/xlink" xmlns:svgjs="http://svgjs.com/svgjs" width="512" height="512" x="0" y="0" viewBox="0 0 25 25" style="enable-background:new 0 0 512 512" xml:space="preserve" class=""><g><path d="M22.38 16.74a.48.48 0 0 0-.61 0A8.72 8.72 0 0 1 17 18.1a8.94 8.94 0 0 1-6.24-15.27.49.49 0 0 0 .08-.6.5.5 0 0 0-.56-.23 10.71 10.71 0 0 0 2.81 21 10.6 10.6 0 0 0 9.4-5.68.49.49 0 0 0-.11-.58z" data-name="Layer 10" fill="#F8F9FA" data-original="#000000" opacity="1" class=""></path></g></svg>