<svg xmlns="http://www.w3.org/2000/svg" version="1.1" xmlns:xlink="http://www.w3.org/1999/xlink" xmlns:svgjs="http://svgjs.com/svgjs" width="512" height="512" x="0" y="0" viewBox="0 0 512 512" style="enable-background:new 0 0 512 512" xml:space="preserve" class=""><g transform="matrix(1,0,0,1,0,0)"><path d="M14.963 510.204C6.7 510.204 0 503.505 0 495.242V257.757C0 165.992 49.54 80.805 129.32 35.292c.171-.105.343-.208.519-.307 26.777-15.194 55.812-25.315 86.3-30.085l.454-.082c.475-.087.949-.171 1.428-.242a261.2 261.2 0 0 1 37.966-2.781c39.45 0 77.198 8.7 112.259 25.866h58.059c8.263 0 14.963 6.7 14.963 14.963v37.559c0 .304-.008.606-.027.906a259.738 259.738 0 0 1 11.524 12.917 254.17 254.17 0 0 1 38.074 61.786 228.166 228.166 0 0 1 6.438 16.318c.047.138.094.276.137.414C507.093 199.833 512 228.506 512 257.757v237.485c0 8.263-6.7 14.963-14.963 14.963H14.963z" style="" fill="#ffffff" data-original="#ffffff" class=""></path><path d="M496.984 257.758v41.729l-.942 1.859.942.7v3.327l-.963.9.963.905v3.393l-.815.488.815 2.001v182.183H384.689l-1.452-.54-1.072.54h-4.515l-.714-.54-1.087.54h-4.475l-.839-.54-1.725.54H14.91V312.297l4.957-16.212-4.957-1.33v-36.997c0-89.926 49.252-168.331 122.27-209.753l82.993-28.629a245.07 245.07 0 0 1 35.761-2.618c39.128 0 76.061 9.302 108.729 25.861a239.263 239.263 0 0 1 30.549 18.404 243.047 243.047 0 0 1 23.691 19.152 252.733 252.733 0 0 1 7.481 7.157c.349.349.698.698 1.047 1.072a241.086 241.086 0 0 1 13.791 15.187 239.41 239.41 0 0 1 35.836 58.155s-7.703 9.338-6.779 11.663c1.101 2.768 12.814 3.649 12.814 3.649 9.004 25.238 13.891 52.395 13.891 80.7z" style="" fill="#a5dbff" data-original="#a5dbff" class=""></path><path d="M183.332 82.55a44.144 44.144 0 0 1-24.396-5.401c-.346-.208-.693-.392-1.039-.6-.346-.208-.693-.415-1.016-.646-1.846-1.154-3.601-2.424-5.216-3.855-.3-.231-.6-.485-.877-.739-.3-.254-.577-.531-.854-.808a40.23 40.23 0 0 1-4.339-4.731c-.254-.3-.485-.6-.715-.923-.231-.3-.462-.623-.669-.946a43.424 43.424 0 0 1-7.04-15.903c25.181-14.287 53.201-24.189 82.999-28.62 2.378 4.893 3.855 10.294 4.247 16.064 1.684 24.327-16.735 45.423-41.085 47.108z" style="" fill="#100709" data-original="#ffa7bb" class="" opacity="1"></path><path d="M117.85 58.236h65.196v2.308H117.85z" style="" transform="rotate(-44.526 150.46 59.393)" fill="#21252a" data-original="#21252a" class=""></path><path d="M124.445 63.987h65.196v2.308h-65.196z" style="" transform="rotate(-44.526 157.055 65.144)" fill="#21252a" data-original="#21252a" class=""></path><path d="M131.041 69.738h65.197v2.308h-65.197z" style="" transform="rotate(-44.522 163.638 70.89)" fill="#21252a" data-original="#21252a" class=""></path><path d="M83.966 133.662a2.719 2.719 0 1 1-1.97-5.068 2.719 2.719 0 0 1 1.97 5.068zM87.214 142.022a2.718 2.718 0 1 1-1.969-5.069 2.72 2.72 0 0 1 1.969 5.069zM90.186 149.67a2.718 2.718 0 1 1-1.969-5.069 2.718 2.718 0 1 1 1.969 5.069zM76.318 136.634a2.719 2.719 0 1 1-1.97-5.068 2.719 2.719 0 0 1 1.97 5.068zM79.566 144.994a2.718 2.718 0 1 1-1.969-5.069 2.719 2.719 0 1 1 1.969 5.069zM82.538 152.642a2.718 2.718 0 1 1-1.969-5.069 2.719 2.719 0 1 1 1.969 5.069zM68.67 139.606a2.718 2.718 0 1 1-1.969-5.069 2.718 2.718 0 1 1 1.969 5.069zM71.918 147.965a2.718 2.718 0 1 1-1.969-5.069 2.719 2.719 0 1 1 1.969 5.069zM74.889 155.613a2.718 2.718 0 1 1-1.969-5.069 2.719 2.719 0 1 1 1.969 5.069zM61.022 142.577a2.718 2.718 0 1 1-1.969-5.069 2.718 2.718 0 1 1 1.969 5.069zM64.269 150.937a2.719 2.719 0 1 1-1.97-5.068 2.719 2.719 0 0 1 1.97 5.068zM67.241 158.585a2.718 2.718 0 1 1-1.969-5.069 2.719 2.719 0 1 1 1.969 5.069zM483.936 214.373a2.719 2.719 0 1 1 4.772-2.608 2.719 2.719 0 0 1-4.772 2.608zM476.066 218.674a2.719 2.719 0 1 1 4.772-2.608 2.719 2.719 0 0 1-4.772 2.608zM468.866 222.609a2.719 2.719 0 1 1 4.772-2.608 2.719 2.719 0 0 1-4.772 2.608zM480.001 207.173a2.719 2.719 0 1 1 4.772-2.608 2.719 2.719 0 0 1-4.772 2.608zM472.131 211.474a2.719 2.719 0 1 1 4.772-2.608 2.719 2.719 0 0 1-4.772 2.608zM464.931 215.409a2.719 2.719 0 1 1 4.772-2.608 2.719 2.719 0 0 1-4.772 2.608zM476.066 199.973a2.719 2.719 0 1 1 4.772-2.608 2.719 2.719 0 0 1-4.772 2.608zM468.196 204.274a2.719 2.719 0 1 1 4.772-2.608 2.719 2.719 0 0 1-4.772 2.608zM460.996 208.209a2.719 2.719 0 1 1 4.772-2.608 2.719 2.719 0 0 1-4.772 2.608zM472.131 192.773a2.719 2.719 0 1 1 4.772-2.608 2.719 2.719 0 0 1-4.772 2.608zM464.261 197.074a2.719 2.719 0 1 1 4.772-2.608 2.719 2.719 0 0 1-4.772 2.608zM457.061 201.009a2.719 2.719 0 1 1 4.772-2.608 2.719 2.719 0 0 1-4.772 2.608zM71.917 435.437a2.72 2.72 0 1 1 .026-5.44 2.72 2.72 0 0 1-.026 5.44zM71.875 444.406a2.719 2.719 0 1 1 .026-5.439 2.72 2.72 0 0 1-.026 5.439zM71.836 452.611a2.719 2.719 0 1 1 .026-5.439 2.72 2.72 0 0 1-.026 5.439zM63.712 435.399a2.719 2.719 0 1 1 .025-5.437 2.719 2.719 0 0 1-.025 5.437zM63.67 444.367a2.72 2.72 0 1 1 .026-5.44 2.72 2.72 0 0 1-.026 5.44zM63.631 452.572a2.719 2.719 0 1 1 .025-5.437 2.719 2.719 0 0 1-.025 5.437zM55.507 435.36a2.719 2.719 0 1 1 .025-5.437 2.719 2.719 0 0 1-.025 5.437zM55.465 444.329a2.719 2.719 0 1 1 .026-5.439 2.719 2.719 0 1 1-.026 5.439zM55.426 452.534a2.719 2.719 0 1 1 .025-5.437 2.719 2.719 0 0 1-.025 5.437zM47.302 435.322a2.72 2.72 0 1 1 .026-5.44 2.72 2.72 0 0 1-.026 5.44zM47.26 444.29a2.719 2.719 0 1 1 .026-5.439 2.719 2.719 0 1 1-.026 5.439zM47.221 452.495a2.719 2.719 0 1 1 .025-5.437 2.719 2.719 0 0 1-.025 5.437z" style="" fill="#52ff24" data-original="#ffe400" class="" opacity="1"></path><path d="m483.105 177.066-41.522 15.279-4.732-15.902 40.207-14.703a213.152 213.152 0 0 1 6.047 15.326zM63.842 294.294l-48.931 18.003v-17.542l44.8-16.364z" style="" fill="#100709" data-original="#ffa7bb" class="" opacity="1"></path><path d="M243.176 75.086a.894.894 0 0 1-.894-.894V41.781a.894.894 0 1 1 1.788 0v32.411c0 .494-.4.894-.894.894z" style="" fill="#ffebde" data-original="#fee8da" class="" opacity="1"></path><path d="M231.717 70.339a.895.895 0 0 1-.632-1.526l22.918-22.917a.895.895 0 0 1 1.265 1.264l-22.919 22.917a.89.89 0 0 1-.632.262z" style="" fill="#ffebde" data-original="#fee8da" class="" opacity="1"></path><path d="M259.382 58.881h-32.411a.894.894 0 1 1 0-1.788h32.411a.894.894 0 1 1 0 1.788z" style="" fill="#ffebde" data-original="#fee8da" class="" opacity="1"></path><path d="M254.635 70.339a.893.893 0 0 1-.632-.261L231.085 47.16a.894.894 0 0 1 1.264-1.264l22.919 22.917a.895.895 0 0 1-.633 1.526zM491.467 323.376a.894.894 0 0 1-.894-.894v-32.411a.894.894 0 1 1 1.788 0v32.411c0 .494-.4.894-.894.894z" style="" fill="#ffebde" data-original="#fee8da" class="" opacity="1"></path><path d="M496.977 299.487v2.539l-3.346 3.347-.9.9-.369.369-.531.531-.369.369-10.825 10.825c-.162.185-.393.254-.623.254s-.462-.069-.646-.254a.905.905 0 0 1 0-1.269l17.609-17.611z" style="" fill="#ffebde" data-original="#fee8da" class="" opacity="1"></path><path d="M496.977 305.372v1.8h-21.719a.9.9 0 0 1-.9-.9c0-.485.415-.9.9-.9h21.719z" style="" fill="#ffebde" data-original="#fee8da" class="" opacity="1"></path><path d="M496.977 310.519v2.539l-4.616-4.616-.9-.9-.877-.877-.392-.392-.9-.9-9.925-9.925a.907.907 0 0 1 0-1.27c.369-.346.923-.346 1.27 0l10.825 10.825.369.369.9.9.9.9 3.346 3.347zM377.649 472.362v22.873h-1.801v-22.873c0-.485.415-.9.9-.9.486 0 .901.415.901.9z" style="" fill="#ffebde" data-original="#fee8da" class="" opacity="1"></path><path d="m388.844 477.74-17.495 17.495h-2.539l6.67-6.67.369-.369.531-.531.369-.369 10.825-10.825a.907.907 0 0 1 1.27 0 .905.905 0 0 1 0 1.269z" style="" fill="#ffebde" data-original="#fee8da" class="" opacity="1"></path><path d="M392.956 489.46h-32.411a.894.894 0 1 1 0-1.788h32.411a.894.894 0 1 1 0 1.788z" style="" fill="#ffebde" data-original="#fee8da" class="" opacity="1"></path><path d="M384.689 495.235h-2.539l-4.501-4.501-.9-.9-.369-.369-.531-.531-11.194-11.194a.907.907 0 0 1 0-1.27.905.905 0 0 1 1.269 0l11.194 11.194.531.531.369.369 6.671 6.671zM48.316 244.018a.894.894 0 0 1-.894-.894v-32.411a.894.894 0 1 1 1.788 0v32.411a.895.895 0 0 1-.894.894z" style="" fill="#ffebde" data-original="#fee8da" class="" opacity="1"></path><path d="M36.856 239.271a.894.894 0 0 1-.632-1.526l22.919-22.917a.894.894 0 0 1 1.264 1.264l-22.918 22.917a.892.892 0 0 1-.633.262z" style="" fill="#ffebde" data-original="#fee8da" class="" opacity="1"></path><path d="M64.521 227.813H32.11a.894.894 0 1 1 0-1.788h32.411a.894.894 0 1 1 0 1.788z" style="" fill="#ffebde" data-original="#fee8da" class="" opacity="1"></path><path d="M59.775 239.271a.888.888 0 0 1-.632-.262l-22.919-22.917a.894.894 0 1 1 1.265-1.264l22.918 22.917a.894.894 0 0 1-.632 1.526zM411.323 342.995l.05 1.696v.025l.973 47.706.05 1.746 1.496 73.367-243.843 11.895L92.17 322.134 148.103 92.17l279.329-3.766a241.086 241.086 0 0 1 13.791 15.187l5.436 69.253 1.347 17.132 11.97 151.947v.025l.075.873h-48.729v.174z" style="" fill="#ffebde" data-original="#fee8da" class="" opacity="1"></path><path d="M170.06 479.425v.115h-2.308l-52.924-20.311-1.731-.669-43.577-16.734V244.601l43.577-34.229.438-.347v-88.007l34.575-29.843 19.227 256.151.115 1.569.3 3.924.808 43.923.023 1.731z" style="" fill="#000000" data-original="#eb7dff" class="" opacity="1"></path><path d="m426.915 307.173-4.143 12.048-227.531 3.947-15.325-202.119 225.176-.554 8.206 19.399z" style="" fill="#21252a" data-original="#21252a" class=""></path><path d="m433.32 319.036-10.548.185-17.68-198.726 14.08-.046z" style="" fill="#a5dbff" data-original="#a5dbff" class=""></path><path d="M167.752 349.965a.866.866 0 0 1-.02-1.731l292.296-6.291c.549-.008.873.37.885.846a.866.866 0 0 1-.846.885l-292.296 6.291h-.019zM113.973 461.932a.866.866 0 0 1-.866-.866V210.025a.866.866 0 0 1 1.732 0v251.041a.866.866 0 0 1-.866.866zM98.279 351.465a.852.852 0 0 1-.854.854H69.52v-1.731h27.904c.486 0 .855.392.855.877zM98.279 357.927c0 .485-.369.877-.854.877H69.52v-1.731h27.904c.486 0 .855.393.855.854zM98.279 364.413c0 .485-.369.877-.854.877H69.52v-1.731h27.904c.486 0 .855.393.855.854zM98.279 370.899c0 .485-.369.877-.854.877H69.52v-1.731h27.904c.486 0 .855.392.855.854zM98.279 377.385c0 .485-.369.877-.854.877H69.52v-1.731h27.904c.486 0 .855.369.855.854zM98.279 383.87a.837.837 0 0 1-.854.854H69.52v-1.731h27.904c.486 0 .855.393.855.877zM98.279 390.356a.852.852 0 0 1-.854.854H69.52v-1.731h27.904c.486 0 .855.392.855.877zM98.279 396.842a.852.852 0 0 1-.854.854H69.52v-1.731h27.904c.486 0 .855.392.855.877zM168.139 399.466a.866.866 0 0 1-.02-1.731l244.559-5.304c.531.011.874.37.885.846a.866.866 0 0 1-.846.885l-244.559 5.304h-.019zM392.269 369.529c0 6.726-5.453 12.179-12.179 12.179s-12.179-5.453-12.179-12.179 5.453-12.179 12.179-12.179 12.179 5.453 12.179 12.179zM210.698 375.544a7.955 7.955 0 1 1-15.892.74 7.955 7.955 0 0 1 15.892-.74zM242.093 374.081a7.955 7.955 0 1 1-15.892.74 7.955 7.955 0 0 1 15.892-.74zM273.488 372.617a7.956 7.956 0 1 1-8.317-7.576 7.954 7.954 0 0 1 8.317 7.576zM321.571 406.238a.906.906 0 0 0-.623-.249l-138.281 3.142c-.499.025-.848.374-.848.873v50.674c0 .224.075.474.274.623.15.15.349.224.599.224h.025l138.281-5.486a.879.879 0 0 0 .848-.873v-48.305a.956.956 0 0 0-.275-.623zm-1.471 48.105-136.56 5.436v-48.953l136.56-3.092v46.609z" style="" fill="#21252a" data-original="#21252a" class=""></path><path d="M190.925 433.646a.866.866 0 0 1-.016-1.732l120.61-2.358a.856.856 0 0 1 .883.849.866.866 0 0 1-.849.882l-120.61 2.358-.018.001z" style="" fill="#21252a" data-original="#21252a" class=""></path><path d="M276.484 430.253v-.025l-1.247-4.938a.906.906 0 0 0-.848-.648l-41.073 1.197c-.349 0-.673.249-.798.623l-1.397 4.663v.025l-.175.599a.83.83 0 0 0 .025.549l.2.574 1.97 5.112a.855.855 0 0 0 .798.574h.025l39.876-.973a.916.916 0 0 0 .798-.598l1.721-5.013.249-.673c.05-.15.05-.349.025-.499l-.149-.549zm-3.267 5.586-38.704.973-1.496-3.99-.324-.848.274-.873 1.047-3.566 39.726-1.122.973 3.84v.025l.175.698-.349 1.047-1.322 3.816z" style="" fill="#21252a" data-original="#21252a" class=""></path><path d="m254.414 205.288-2.768.025.075 10.274-9.85.075-.1-10.249-2.768.025.2 23.167 2.768-.025-.075-10.324 9.85-.1.1 10.324 2.793-.025-.225-23.167zM271.745 224.241c-.249.424-.574.773-.973 1.097-.399.299-.898.549-1.471.748-.574.175-1.247.274-2.02.274-1.696.025-3.017-.474-3.99-1.446-.948-.998-1.471-2.294-1.546-3.94l13.242-.1-.025-2.12c0-.748-.15-1.521-.474-2.394a7.404 7.404 0 0 0-1.397-2.369c-.648-.723-1.446-1.322-2.444-1.82-.973-.474-2.145-.723-3.491-.698a8.373 8.373 0 0 0-3.192.623 8.194 8.194 0 0 0-2.544 1.721 7.67 7.67 0 0 0-1.696 2.594 7.983 7.983 0 0 0-.574 3.192v.798c.025 1.272.224 2.419.623 3.441.424 1.047.973 1.92 1.696 2.668a6.963 6.963 0 0 0 2.544 1.721c.973.399 2.07.599 3.217.574 2.12 0 3.815-.499 5.037-1.471 1.247-.973 2.095-2.219 2.544-3.766l-2.469-.623a6.02 6.02 0 0 1-.597 1.296zm-9.401-7.481a5.19 5.19 0 0 1 1.147-1.496 4.967 4.967 0 0 1 1.646-.973 5.526 5.526 0 0 1 2.045-.374c.623 0 1.247.1 1.87.324.599.2 1.147.499 1.621.898s.873.873 1.172 1.446c.299.574.474 1.222.524 1.92l-10.574.1a5.673 5.673 0 0 1 .549-1.845zM294.663 225.713l-5.96.05-.2-20.773-8.329.075.025 2.369 5.761-.05.15 18.404-5.96.05.025 2.394 14.514-.125-.026-2.394zM314.913 225.538l-5.96.05-.175-20.798-8.354.1.025 2.369 5.761-.05.175 18.404-5.96.05.025 2.394 14.489-.15-.026-2.369zM335.412 215.737c-.474-1.047-1.072-1.92-1.845-2.643a7.871 7.871 0 0 0-2.643-1.646c-.998-.349-2.045-.549-3.117-.524-1.097 0-2.12.2-3.117.599a7.242 7.242 0 0 0-2.618 1.671c-.748.723-1.347 1.621-1.796 2.668-.449 1.072-.648 2.269-.648 3.616v.399c.025 1.347.249 2.569.723 3.616a7.698 7.698 0 0 0 1.82 2.618c.748.723 1.646 1.247 2.643 1.621a8.329 8.329 0 0 0 3.142.524c1.072 0 2.12-.2 3.117-.574a7.974 7.974 0 0 0 2.618-1.671c.748-.723 1.347-1.621 1.771-2.668.449-1.047.673-2.244.648-3.616v-.399c0-1.346-.249-2.543-.698-3.591zm-1.945 4.015c0 .923-.125 1.746-.399 2.494s-.673 1.372-1.172 1.92a5.114 5.114 0 0 1-1.771 1.222c-.673.274-1.397.424-2.195.424s-1.521-.125-2.195-.399c-.698-.249-1.272-.648-1.796-1.172a5.702 5.702 0 0 1-1.197-1.895c-.299-.748-.449-1.571-.449-2.494l-.025-.399c0-.898.125-1.696.424-2.444a5.747 5.747 0 0 1 1.172-1.92 5.546 5.546 0 0 1 3.966-1.721c.748 0 1.496.15 2.17.424a5.334 5.334 0 0 1 1.796 1.222c.524.524.923 1.172 1.222 1.895.299.748.449 1.546.449 2.444v.399zM349.327 204.441l-2.643.025.15 17.008 2.643-.025-.15-17.008zm.499 19.676c-.474-.449-1.022-.673-1.646-.673-.648.025-1.197.249-1.646.698s-.673.998-.648 1.646c0 .648.224 1.172.673 1.621.474.449 1.022.673 1.646.673.648 0 1.197-.224 1.646-.698.449-.449.673-.998.648-1.646a2.22 2.22 0 0 0-.673-1.621zM376.185 228.954l-15.412.15.025 2.369 15.412-.125-.025-2.394zM395.202 80.184H279.516V42.623h115.686l14.172 17.144z" style="" fill="#ffebde" data-original="#fee8da" class="" opacity="1"></path><path d="M395.202 42.623h31.05v37.56h-31.05z" style="" fill="#000000" data-original="#eb7dff" class="" opacity="1"></path><path d="M346.54 62.322a4.757 4.757 0 1 1-9.515.001 4.757 4.757 0 0 1 9.515-.001zM365.905 62.322a4.758 4.758 0 1 1-9.515 0 4.758 4.758 0 0 1 9.515 0zM385.269 62.322a4.758 4.758 0 1 1-9.515 0 4.758 4.758 0 0 1 9.515 0z" style="" fill="#21252a" data-original="#21252a" class=""></path><path d="M119.424 440.428a.572.572 0 0 1-.356-.123l-33.536-26.198H33.976a1.953 1.953 0 0 1-1.952-1.952v-43.216c0-1.076.876-1.952 1.952-1.952h91.93c1.077 0 1.952.876 1.952 1.952v43.216a1.953 1.953 0 0 1-1.952 1.952h-21.575l15.585 25.442a.578.578 0 0 1-.492.879z" style="" fill="#ffebde" data-original="#fee8da" class="" opacity="1"></path><path d="M125.909 366.412H33.988c-1.397 0-2.544 1.122-2.544 2.519v43.217a2.554 2.554 0 0 0 2.544 2.544h51.347l27.781 21.696 1.721 1.347 3.865 3.017a1.162 1.162 0 0 0 1.496-.05c.399-.349.499-.973.2-1.446l-5.561-9.077-1.721-2.818-7.756-12.668h20.549c1.397 0 2.519-1.147 2.519-2.544v-43.217a2.513 2.513 0 0 0-2.519-2.52zm1.371 45.736c0 .773-.623 1.372-1.372 1.372H103.29l9.826 16.035 1.721 2.818 4.589 7.481-4.589-3.591-1.721-1.347-27.382-21.396H33.988c-.773 0-1.397-.599-1.397-1.372v-43.217c0-.748.623-1.372 1.397-1.372h91.921c.748 0 1.372.623 1.372 1.372v43.217z" style="" fill="#21252a" data-original="#21252a" class=""></path><path d="m80.049 405.99 15.213-12.047a8.776 8.776 0 0 0 1.666-12.018 8.775 8.775 0 0 0-11.536-2.442l-5.426 3.165-5.426-3.165a8.776 8.776 0 0 0-9.871 14.46l15.213 12.047.01.125.074-.058.074.058c-.001-.001.006-.083.009-.125z" style="" fill="#000000" data-original="#eb7dff" class="" opacity="1"></path><path d="M438.879 376.121h52.614v9.904h-52.614z" style="" transform="rotate(21.616 465.154 381.04)" fill="#512a8d" data-original="#512a8d" class=""></path><path d="m440.603 376.741 8.534 26.352-28.857 20.525 26.76 10.603 18.896-47.691z" style="" fill="#ffebde" data-original="#fee8da" class="" opacity="1"></path><path d="m485.92 394.698-24.267 13.355 6.966 34.719-26.759-10.603 18.897-47.691z" style="" fill="#ffebde" data-original="#fee8da" class="" opacity="1"></path><path d="M417.588 429.854h52.614v9.904h-52.614z" style="" transform="rotate(21.616 443.861 434.764)" fill="#512a8d" data-original="#512a8d" class=""></path><path d="m451.304 389.221 3.331 16.8 14.107-9.557c0-.001-17.495-7.099-17.438-7.243zM455.538 433.921l-4.194-19.305-14.546 11.453s18.807 7.681 18.74 7.852z" style="" fill="#100709" data-original="#ffa7bb" class="" opacity="1"></path><path d="M487.819 395.762a.406.406 0 0 1-.145-.028l-48.915-19.382a.394.394 0 0 1-.222-.511.403.403 0 0 1 .511-.222l48.915 19.382a.394.394 0 0 1-.144.761zM470.262 440.071a.406.406 0 0 1-.145-.028l-48.915-19.382a.393.393 0 0 1-.221-.511.404.404 0 0 1 .511-.222l48.915 19.382c.202.08.302.309.221.511a.393.393 0 0 1-.366.25z" style="" fill="#21252a" data-original="#21252a" class=""></path></g></svg>