<svg xmlns="http://www.w3.org/2000/svg" version="1.1" xmlns:xlink="http://www.w3.org/1999/xlink" xmlns:svgjs="http://svgjs.com/svgjs" width="512" height="512" x="0" y="0" viewBox="0 0 512 512" style="enable-background:new 0 0 512 512" xml:space="preserve" class=""><g><circle cx="258.475" cy="256" r="110.933" fill="#f8f9fa" data-original="#000000" opacity="1" class=""></circle><path d="M418.645 206.251a5.146 5.146 0 0 0-1.109-.256 13.773 13.773 0 0 0-1.792-.427c-.601.015-1.199.072-1.792.171a2.37 2.37 0 0 0-1.109.085c-.171 0-.256.085-.341.085a9.712 9.712 0 0 0-1.621.853 6.39 6.39 0 0 0-1.28.768c-.386.357-.73.758-1.024 1.194a6.294 6.294 0 0 0-1.024 1.451l-.256.256a5.206 5.206 0 0 0-.256 1.109 13.773 13.773 0 0 0-.427 1.792c.015.601.072 1.199.171 1.792a2.45 2.45 0 0 0 .085 1.109 154.504 154.504 0 0 1 0 79.531 2.45 2.45 0 0 0-.085 1.109 12.817 12.817 0 0 0-.171 1.792c.102.606.244 1.205.427 1.792.044.378.13.75.256 1.109.064.128.151.244.256.341l.512.768a8.087 8.087 0 0 0 1.365 1.621c.256.171.427.341.683.512a7.794 7.794 0 0 0 2.645 1.365h.085c.714.244 1.465.36 2.219.341a8.476 8.476 0 0 0 3.243-.683.51.51 0 0 1 .341-.085l90.88-41.984v-15.53l-90.881-41.981zM308.651 410.368c0-.171-.085-.256-.085-.341-.256-.597-.597-1.109-.853-1.621a6.39 6.39 0 0 0-.768-1.28 6.867 6.867 0 0 0-1.195-1.024 6.294 6.294 0 0 0-1.451-1.024l-.256-.256a4.882 4.882 0 0 0-1.195-.256 10.008 10.008 0 0 0-1.707-.427c-.601.015-1.199.072-1.792.171a2.369 2.369 0 0 0-1.109.085 155.105 155.105 0 0 1-79.53 0 2.45 2.45 0 0 0-1.109-.085 12.817 12.817 0 0 0-1.792-.171c-.606.102-1.205.244-1.792.427-.378.045-.75.13-1.109.256l-.256.256a9.57 9.57 0 0 0-1.536 1.024c-.391.318-.761.66-1.109 1.024a6.39 6.39 0 0 0-.768 1.28 9.639 9.639 0 0 0-.853 1.621c0 .085-.085.171-.085.341a2.45 2.45 0 0 0-.085 1.109 12.817 12.817 0 0 0-.171 1.792c.101.606.244 1.205.427 1.792.045.378.131.75.256 1.109l41.984 90.88a8.567 8.567 0 0 0 15.53 0l41.984-90.88c.125-.359.211-.731.256-1.109.183-.587.325-1.186.427-1.792a12.817 12.817 0 0 0-.171-1.792 2.48 2.48 0 0 0-.087-1.109zM98.645 305.835a8.51 8.51 0 0 0 3.243.683 6.38 6.38 0 0 0 2.218-.341h.085a7.812 7.812 0 0 0 2.645-1.365c.256-.171.427-.341.683-.512a8.087 8.087 0 0 0 1.365-1.621l.513-.768c.105-.097.192-.213.256-.341.126-.359.211-.731.256-1.109.182-.587.325-1.186.427-1.792a12.817 12.817 0 0 0-.171-1.792 2.45 2.45 0 0 0-.085-1.109 154.504 154.504 0 0 1 0-79.531 2.45 2.45 0 0 0 .085-1.109c.099-.593.156-1.191.171-1.792a13.612 13.612 0 0 0-.427-1.792 5.206 5.206 0 0 0-.256-1.109l-.256-.256a6.294 6.294 0 0 0-1.024-1.451 6.824 6.824 0 0 0-1.024-1.194 6.39 6.39 0 0 0-1.28-.768 9.639 9.639 0 0 0-1.621-.853c-.085 0-.171-.085-.341-.085a2.45 2.45 0 0 0-1.109-.085 12.817 12.817 0 0 0-1.792-.171c-.606.102-1.205.244-1.792.427-.378.044-.75.13-1.109.256l-90.88 41.984a8.567 8.567 0 0 0 0 15.53l90.88 41.984a.49.49 0 0 1 .34.082zM208.299 101.632c0 .171.085.256.085.341.233.566.519 1.109.853 1.621.205.455.463.885.768 1.28.348.364.718.706 1.109 1.024.478.39.992.733 1.536 1.024l.256.256c.359.125.731.211 1.109.256.587.182 1.186.325 1.792.427a12.817 12.817 0 0 0 1.792-.171c.371.06.752.031 1.109-.085a155.105 155.105 0 0 1 79.53 0c.714.244 1.465.36 2.219.341a8.494 8.494 0 0 0 3.243-.683.51.51 0 0 1 .341-.085c.171-.085.341-.341.512-.427a12.24 12.24 0 0 0 1.707-1.195c.277-.265.534-.55.768-.853.39-.508.733-1.051 1.024-1.621a5.25 5.25 0 0 0 .427-1.024c.085-.171.171-.256.171-.427a2.45 2.45 0 0 0 .085-1.109c.099-.593.156-1.191.171-1.792a13.455 13.455 0 0 0-.427-1.792 5.267 5.267 0 0 0-.256-1.109L266.24 4.95a8.565 8.565 0 0 0-15.53 0l-41.984 90.88a5.267 5.267 0 0 0-.256 1.109 13.612 13.612 0 0 0-.427 1.792c.014.601.072 1.199.171 1.792a2.45 2.45 0 0 0 .085 1.109zM110.08 177.92a6.98 6.98 0 0 0 1.024 1.707c.085.171.085.341.256.512a8.182 8.182 0 0 0 2.219 1.963l.256.256c.341.171.768.256 1.109.427.256.085.512.256.768.341.726.191 1.469.305 2.219.341h.256a8.94 8.94 0 0 0 2.56-.427c.085-.085.171-.085.341-.085a1.17 1.17 0 0 1 .341-.256 6.578 6.578 0 0 0 2.304-1.451c.085 0 .171-.085.256-.171a6.719 6.719 0 0 0 1.536-1.877 154.054 154.054 0 0 1 56.149-56.149c.341-.256.597-.597.853-.768.512-.427.939-.768 1.365-1.195.341-.512.597-1.024.939-1.536.171-.341.427-.597.597-.939a.645.645 0 0 1 .085-.427c.127-.591.212-1.19.256-1.792a9.286 9.286 0 0 0 .085-1.536c-.085-.512-.256-.939-.341-1.451a10.098 10.098 0 0 0-.597-1.707.51.51 0 0 1-.085-.341c-.256-.341-.597-.597-.768-.853-.427-.512-.768-.939-1.195-1.365-.512-.341-1.024-.597-1.536-.939-.341-.171-.597-.427-.939-.597L86.443 72.96a8.552 8.552 0 0 0-11.008 11.008l34.645 93.952zM406.869 334.08c-.171-.341-.427-.597-.597-.939-.341-.512-.597-1.024-.939-1.536a14.827 14.827 0 0 0-1.28-1.109c-.341-.256-.597-.597-.939-.853a.515.515 0 0 1-.341-.085 13.375 13.375 0 0 0-1.707-.597c-.512-.085-.939-.256-1.451-.341-.597 0-1.109.085-1.621.085a11.72 11.72 0 0 0-1.707.256.639.639 0 0 1-.427.085c-.36.198-.703.426-1.024.683-.502.252-.986.537-1.451.853-.427.427-.768.853-1.195 1.365-.171.256-.512.512-.768.853a154.057 154.057 0 0 1-56.149 56.15c-.341.256-.597.597-.939.853-.447.345-.875.715-1.28 1.109-.341.512-.597 1.024-.939 1.536-.171.341-.427.597-.597.939a.645.645 0 0 1-.085.427 13.04 13.04 0 0 0-.256 1.792 9.18 9.18 0 0 0-.085 1.536c.085.512.256.939.341 1.451.148.586.347 1.157.597 1.707a.51.51 0 0 1 .085.341c.394.714.914 1.35 1.536 1.877l.256.256a7.819 7.819 0 0 0 2.304 1.365c.128.064.244.151.341.256l93.952 34.645c.96.335 1.97.508 2.987.512a8.591 8.591 0 0 0 6.059-2.475 8.818 8.818 0 0 0 1.963-9.045l-34.644-93.952zM185.515 393.814a.633.633 0 0 1-.085-.427c-.171-.341-.427-.597-.597-.939-.341-.512-.597-1.024-.939-1.536a14.827 14.827 0 0 0-1.28-1.109c-.341-.256-.597-.597-.939-.853a154.047 154.047 0 0 1-56.149-56.149 8.082 8.082 0 0 0-.853-.853 8.607 8.607 0 0 0-1.109-1.365c-.512-.341-1.024-.597-1.536-.939-.341-.171-.597-.427-.939-.597a.645.645 0 0 1-.427-.085 12.888 12.888 0 0 0-1.792-.256c-.512 0-1.024-.085-1.451-.085a8.918 8.918 0 0 0-1.621.427 4.664 4.664 0 0 0-1.536.512.923.923 0 0 1-.427.085c-.427.256-.597.597-.939.853-.447.345-.875.716-1.28 1.109-.341.512-.597 1.024-.939 1.536-.171.341-.427.597-.597.939l-34.646 93.952a8.816 8.816 0 0 0 1.963 9.045 8.591 8.591 0 0 0 6.059 2.475 9.182 9.182 0 0 0 2.987-.512l93.952-34.645c.097-.105.213-.192.341-.256a7.84 7.84 0 0 0 2.304-1.365l.256-.256a6.705 6.705 0 0 0 1.536-1.877.515.515 0 0 1 .085-.341c.25-.55.45-1.121.597-1.707.085-.512.256-.939.341-1.451a9.286 9.286 0 0 0-.085-1.536 12.85 12.85 0 0 0-.255-1.794zM331.435 118.187a.639.639 0 0 1 .085.427c.171.341.427.597.597.939.341.512.597 1.024.939 1.536.427.427.853.768 1.365 1.195.256.171.512.512.853.768a154.047 154.047 0 0 1 56.149 56.149c.394.714.914 1.35 1.536 1.877.085.085.171.171.256.171a6.578 6.578 0 0 0 2.304 1.451c.129.064.244.15.341.256.171 0 .256 0 .341.085a8.94 8.94 0 0 0 2.56.427h.256a10.82 10.82 0 0 0 2.219-.341c.256-.085.512-.256.768-.341.341-.171.768-.256 1.109-.427l.256-.256a8.148 8.148 0 0 0 2.219-1.963c.171-.171.171-.341.256-.512a6.98 6.98 0 0 0 1.024-1.707l34.645-93.952a8.554 8.554 0 0 0-11.008-11.008l-93.952 34.645c-.33.217-.672.417-1.024.597-.513.341-.939.597-1.451.939-.427.427-.768.853-1.195 1.365-.171.256-.512.512-.768.853a.515.515 0 0 1-.085.341c-.25.55-.45 1.121-.597 1.707-.085.512-.256.939-.341 1.451a9.286 9.286 0 0 0 .085 1.536c.045.602.131 1.201.258 1.792z" fill="#f8f9fa" data-original="#000000" opacity="1" class=""></path></g></svg>