<svg xmlns="http://www.w3.org/2000/svg" width="1000" height="1000" viewBox="0 0 2000 2000">
  <defs>
    <style>
      .cls-1 {
        fill: #404040;
        fill-rule: evenodd;
      }
    </style>
  </defs>
  <path id="Color_Fill_1" data-name="Color Fill 1" class="cls-1" d="M1084,367l-68,4V94c0-39.684-7.34-86.15,25-94,49.41-11.992,43,44.544,43,84V367ZM346,233c32.388,0.277,48.085,30.084,65,47L555,423c15.463,15.46,48.352,48.831,14,72-31.617,21.324-60.731-21.729-75-36L322,287C303.643,259.914,328.123,241.469,346,233Zm997,200c25.9-.254,89.5-4.434,108,3-0.33.667-.67,1.333-1,2-30.21,12.616-70.06,54.151-90,79-19.62,24.453-40.38,48.154-57,76-61.6,103.245-90.95,272.128-38,408,52.49,134.69,153.2,234.59,296,279,51.42,15.99,126.63,30.67,195,19,33.83-5.78,64.3-14.06,94-22-7.44,34.59-49.63,77.47-70,103-76.23,95.55-186.47,153.09-330,182-107.4,21.63-222.3-8.56-295-40-23.49-10.16-55.32-20.43-72-38V515c44.75-22.961,88.34-46.873,142-63l82-16Zm-330,4h4V1563c-229.231-16.14-413.7-200.17-473-389-23.2-73.87-39.275-185.438-19-277,10.155-45.858,22.011-88.039,39-127,59.664-136.824,168.685-239.637,308-297,27.492-11.32,57.7-19.322,88-27Zm803,208c19.8,15.855,21.53,65.782,44,81,21.98,14.886,63.31,4.826,88,17l-36,36q-13.005,15-26,30c-8.15,20.078,7.6,73.822,11,96h-1c-16.19-8.659-64.19-44.565-87-39l-73,39c4.66-15.659,18.04-78.059,12-94-9.18-24.23-46.82-47.8-63-69,22.83-1.951,76.61-7.1,91-18C1790.45,713.048,1807.12,663.692,1816,645ZM78,966H312c35.457-.008,79.979-2.109,72,39-2.4,12.38-10.448,22.79-21,27-16.419,6.54-47.714,2-68,2H143c-22.439,0-58.015,4.89-75-3C32.7,1014.6,51.025,978.589,78,966Zm465,534c28.138-.49,53.163,23.66,36,52q-89.991,90.495-180,181c-15.555,15.56-42.394,50.37-72,27-32.54-25.68,9.915-61.92,24-76q59.994-59.49,120-119C493.765,1542.24,513.31,1515.79,543,1500Zm541,133v283c0,39.27,6.37,96.24-43,84-32.32-8.01-25-54.19-25-94V1629Q1049.99,1631,1084,1633Z"/>
</svg>
